<svg version="1.1" id="Layer_1" xmlns="http://www.w3.org/2000/svg" x="0px" y="0px" width="100%" viewBox="0 0 500 500" enable-background="new 0 0 500 500">
  <path fill="#032594" opacity="1.000000" stroke="none" 
    d="
  M128.519943,165.965439 
    C139.748795,155.058395 150.892349,144.061890 162.223267,133.261917 
    C190.441788,106.365677 218.699982,79.510605 247.037140,52.739468 
    C258.742981,41.680511 272.542725,38.435322 287.643951,44.101822 
    C302.756836,49.772686 311.091949,61.297466 312.424591,77.357841 
    C313.467773,89.929817 308.596313,100.349854 299.454102,109.002594 
    C264.002350,142.556290 228.625687,176.189346 193.239960,209.812744 
    C191.313202,211.643524 189.557831,213.654648 187.170624,215.921341 
    C186.403427,216.841583 186.188339,217.422333 185.973251,218.003082 
    C185.973251,218.003082 185.989090,217.991928 185.640961,217.940338 
    C174.879944,227.667130 164.482407,237.461884 154.049774,247.219131 
    C144.100754,256.524048 134.115189,265.789886 123.897163,274.823730 
    C103.442734,241.515961 103.346565,208.248352 122.593155,174.769028 
    C123.479424,173.227356 124.228157,171.606628 125.040939,170.022736 
    C125.040947,170.022736 124.999947,169.998962 125.308945,170.019165 
    C125.744431,169.680908 125.870911,169.322449 125.997398,168.963974 
    C125.997398,168.963974 125.977524,168.982620 126.283043,168.908615 
    C126.810829,168.261383 127.033104,167.688156 127.255379,167.114929 
    C127.255379,167.114929 127.117874,167.066193 127.457458,167.097382 
    C128.038010,166.740860 128.278976,166.353149 128.519943,165.965439 
  z"/>
  <path fill="#032594" opacity="1.000000" stroke="none" 
    d="
  M374.505310,336.040497 
    C367.722870,342.902069 361.109375,349.940857 354.129181,356.595001 
    C321.229370,387.957764 288.335907,419.328674 255.226349,450.469360 
    C233.834534,470.589142 199.435547,461.279846 191.623962,433.333954 
    C187.332108,417.979919 191.647797,404.775848 203.145798,393.859406 
    C237.799393,360.958435 272.468292,328.073608 307.103943,295.153748 
    C309.627777,292.754944 311.932739,290.125885 314.894409,287.282745 
    C329.248260,273.924286 343.026825,260.865356 356.854645,247.858749 
    C363.638885,241.477386 370.514404,235.193008 377.599976,229.074768 
    C398.035858,262.348450 398.134430,295.619965 378.918549,329.111481 
    C378.064148,330.600586 377.474060,332.241394 376.760864,333.811523 
    C376.760864,333.811523 376.796967,333.886627 376.479950,333.788086 
    C376.073853,334.106476 375.984772,334.523376 375.895721,334.940308 
    C375.895721,334.940308 375.951172,334.994873 375.597595,334.920288 
    C374.997803,335.243958 374.751556,335.642242 374.505310,336.040497 
  z"/>
  <path fill="#279EF7" opacity="1.000000" stroke="none" 
    d="
  M377.348602,228.864716 
    C370.514404,235.193008 363.638885,241.477386 356.854645,247.858749 
    C343.026825,260.865356 329.248260,273.924286 315.090881,287.036072 
    C317.133362,276.570892 314.854004,269.769928 307.627716,265.912170 
    C301.351593,262.561615 294.405823,263.538239 288.769562,268.815155 
    C281.717285,275.417786 274.777466,282.140961 267.816772,288.840851 
    C224.275543,330.750671 160.245422,325.139893 124.368942,275.894714 
    C124.093430,275.502197 124.145683,275.072906 124.145676,275.072906 
    C134.115189,265.789886 144.100754,256.524048 154.049774,247.219131 
    C164.482407,237.461884 174.879944,227.667130 185.642075,217.930710 
    C185.829056,220.278519 185.399368,222.602615 185.555176,224.886780 
    C186.003662,231.462021 189.389374,236.193024 195.462326,238.674301 
    C201.576233,241.172302 207.300446,240.025635 212.119293,235.543411 
    C219.185379,228.970871 226.269745,222.401321 233.032028,215.521576 
    C275.006317,172.818130 343.613342,179.284760 377.115601,228.046387 
    C377.352875,228.484802 377.348602,228.864731 377.348602,228.864716 
  z"/>
  <path fill="#FE8489" opacity="1.000000" stroke="none" 
    d="
  M377.599976,229.074768 
    C377.348602,228.864731 377.352875,228.484802 377.370087,228.296127 
    C383.587708,222.309982 389.788269,216.512665 395.988464,210.714981 
    C407.035675,200.384933 419.799988,196.350143 434.570251,200.707870 
    C449.334747,205.063873 458.408234,215.253143 461.465973,230.056107 
    C463.933899,242.003845 461.678101,253.802078 452.770538,262.528931 
    C428.271912,286.530548 403.218781,309.966187 378.374023,333.614166 
    C378.150085,333.827332 377.774689,333.881378 377.115448,333.910645 
    C377.474060,332.241394 378.064148,330.600586 378.918549,329.111481 
    C398.134430,295.619965 398.035858,262.348450 377.599976,229.074768 
  z"/>
  <path fill="#FE8489" opacity="1.000000" stroke="none" 
    d="
  M123.897171,274.823730 
    C124.145683,275.072906 124.093430,275.502197 124.084930,275.718140 
    C117.974411,281.581024 111.878227,287.234253 105.769142,292.873535 
    C94.220535,303.533997 80.853607,306.774963 66.067734,301.436432 
    C51.535755,296.189575 43.069530,285.485260 40.912895,270.090454 
    C39.004555,256.468048 44.020409,245.324432 53.745850,236.087402 
    C76.200714,214.760223 98.713898,193.494446 121.221039,172.222412 
    C122.172577,171.323090 123.300888,170.610809 124.693901,169.917084 
    C124.228157,171.606628 123.479424,173.227356 122.593155,174.769028 
    C103.346565,208.248352 103.442734,241.515961 123.897171,274.823730 
  z"/>
  <path fill="#FE8489" opacity="1.000000" stroke="none" 
    d="
  M126.919006,167.181885 
    C127.033104,167.688156 126.810829,168.261383 126.276703,168.920685 
    C126.170769,168.420776 126.376694,167.834793 126.919006,167.181885 
  z"/>
  <path fill="#279EF7" opacity="1.000000" stroke="none" 
    d="
  M186.281464,217.913330 
    C186.188339,217.422333 186.403427,216.841583 186.937988,216.146133 
    C187.034866,216.628815 186.812286,217.226196 186.281464,217.913330 
  z"/>
  <path fill="#FE8489" opacity="1.000000" stroke="none" 
    d="
  M128.175629,166.028625 
    C128.278976,166.353149 128.038010,166.740860 127.451447,167.170074 
    C127.347672,166.838318 127.589493,166.465057 128.175629,166.028625 
  z"/>
  <path fill="#FE8489" opacity="1.000000" stroke="none" 
    d="
  M125.680923,168.959000 
    C125.870911,169.322449 125.744431,169.680908 125.317825,170.041138 
    C125.133286,169.679932 125.248863,169.316986 125.680923,168.959000 
  z"/>
  <path fill="#FE8489" opacity="1.000000" stroke="none" 
    d="
  M376.207581,334.928650 
    C375.984772,334.523376 376.073853,334.106476 376.511536,333.760895 
    C376.746582,334.193848 376.633026,334.555450 376.207581,334.928650 
  z"/>
  <path fill="#FE8489" opacity="1.000000" stroke="none" 
    d="
  M374.867828,336.052582 
    C374.751556,335.642242 374.997803,335.243958 375.600647,334.881500 
    C375.714935,335.299774 375.472626,335.682220 374.867828,336.052582 
  z"/>
</svg>